<?xml version="1.0" ?><!DOCTYPE svg  PUBLIC '-//W3C//DTD SVG 1.1//EN'  'http://www.w3.org/Graphics/SVG/1.1/DTD/svg11.dtd'><svg height="512px" style="enable-background:new 0 0 512 512;" version="1.1" viewBox="0 0 512 512" width="512px" xml:space="preserve" xmlns="http://www.w3.org/2000/svg" xmlns:xlink="http://www.w3.org/1999/xlink"><g id="_x32_4-apple-pay"><g><path d="M110.053,185.892c-5.391,6.396-14.014,11.428-22.639,10.709c-1.077-8.625,3.163-17.824,8.122-23.43    c5.39-6.539,14.805-11.211,22.495-11.57C118.893,170.512,115.371,179.352,110.053,185.892 M117.887,198.252    c-12.505-0.718-23.213,7.116-29.107,7.116c-6.037,0-15.093-6.756-25.01-6.541c-12.864,0.216-24.794,7.475-31.334,19.045    c-13.511,23.215-3.522,57.496,9.558,76.398c6.396,9.342,14.014,19.622,24.077,19.261c9.559-0.361,13.295-6.182,24.794-6.182    c11.571,0,14.95,6.182,25.011,6.036c10.42-0.216,16.96-9.342,23.357-18.685c7.258-10.638,10.277-20.913,10.421-21.487    c-0.215-0.219-20.124-7.835-20.339-30.833c-0.215-19.261,15.739-28.388,16.458-28.963    C136.788,200.049,122.774,198.612,117.887,198.252 M190.043,172.236V312.31h21.777v-47.866h30.112    c27.526,0,46.787-18.901,46.787-46.211s-18.973-45.997-46.066-45.997H190.043z M211.82,190.563h25.082    c18.902,0,29.683,10.062,29.683,27.742c0,17.679-10.78,27.885-29.754,27.885h-25.01V190.563z M328.392,313.386    c13.655,0,26.303-6.897,32.054-17.894h0.431v16.817H381v-69.714c0-20.195-16.171-33.274-41.037-33.274    c-23.071,0-40.176,13.223-40.823,31.334h19.621c1.652-8.625,9.631-14.302,20.556-14.302c13.295,0,20.769,6.18,20.769,17.608v7.762    l-27.167,1.652c-25.225,1.509-38.88,11.857-38.88,29.826C294.11,301.314,308.196,313.386,328.392,313.386z M334.285,296.786    c-11.572,0-18.975-5.605-18.975-14.088c0-8.84,7.116-13.941,20.698-14.733l24.148-1.51v7.907    C360.157,287.443,349.019,296.786,334.285,296.786z M407.95,350.399c21.2,0,31.19-8.12,39.886-32.629l38.163-107.084h-22.136    l-25.584,82.721h-0.431l-25.588-82.721h-22.71l36.798,101.982l-2.013,6.181c-3.307,10.492-8.696,14.59-18.327,14.59    c-1.724,0-5.03-0.215-6.396-0.361v16.819C400.906,350.185,406.297,350.399,407.95,350.399L407.95,350.399z" style="fill:#313C42;"/></g></g><g id="Layer_1"/></svg>