<?xml version="1.0" ?><!DOCTYPE svg  PUBLIC '-//W3C//DTD SVG 1.1//EN'  'http://www.w3.org/Graphics/SVG/1.1/DTD/svg11.dtd'><svg enable-background="new 0 0 40 40" version="1.1" viewBox="0 0 40 40" xml:space="preserve" xmlns="http://www.w3.org/2000/svg" xmlns:xlink="http://www.w3.org/1999/xlink"><g id="E-Com"><g id="CVC_5_"/><g id="Mastercard_5_"/><g id="Visa_6_"><g id="Visa"><g><path clip-rule="evenodd" d="M34,9.5H6c-1.1,0-2,0.9-2,2v17c0,1.1,0.9,2,2,2h28      c1.1,0,2-0.9,2-2v-17C36,10.4,35.1,9.5,34,9.5z" fill="#ECF0F1" fill-rule="evenodd"/></g></g><g id="Visa_1_"><g><path clip-rule="evenodd" d="M34,9.5H6c-1.1,0-2,0.9-2,2v2h32v-2C36,10.4,35.1,9.5,34,9.5z" fill="#34495E" fill-rule="evenodd"/></g></g><g id="Visa_2_"><g><path clip-rule="evenodd" d="M4,26.5v2c0,1.1,0.9,2,2,2h28c1.1,0,2-0.9,2-2v-2H4z" fill="#F1C40F" fill-rule="evenodd"/></g></g><g id="Visa_3_"><g><path clip-rule="evenodd" d="M22.5,19.2c-0.7-0.4-1.1-0.6-1.1-1c0-0.3,0.4-0.7,1.1-0.7      c0.6,0,1.1,0.1,1.5,0.3l0.2,0.1l0.3-1.7c-0.4-0.2-1-0.3-1.7-0.3c-1.9,0-3.3,1.1-3.3,2.6c0,1.1,1,1.7,1.7,2.1c0.8,0.4,1,0.6,1,1      c0,0.5-0.6,0.8-1.2,0.8c-0.8,0-1.2-0.1-1.8-0.4l-0.3-0.1l-0.3,1.7c0.5,0.2,1.3,0.4,2.2,0.4c2,0,3.4-1,3.4-2.6      C24.2,20.4,23.7,19.7,22.5,19.2z M29.4,16.1h-1.5c-0.5,0-0.8,0.1-1,0.6L24,23.8h2c0,0,0.3-1,0.4-1.2c0.2,0,2.2,0,2.5,0      c0.1,0.3,0.2,1.2,0.2,1.2H31L29.4,16.1z M27,21.1c0.2-0.4,0.8-2.2,0.8-2.2c0,0,0.2-0.4,0.3-0.7l0.1,0.7c0,0,0.4,1.8,0.4,2.2H27z       M15.5,23.8h1.9l1.2-7.7h-1.9L15.5,23.8z M13.8,16.1l-1.9,5.3l-0.2-1.1c-0.4-1.2-1.5-2.6-2.7-3.3l1.7,6.8l2.1,0l3.1-7.7H13.8z" fill="#34495E" fill-rule="evenodd"/></g></g><g id="Visa_4_"><g><path clip-rule="evenodd" d="M11,16.7c-0.1-0.5-0.5-0.6-0.9-0.7H7l0,0.2      c2.4,0.6,4.1,2.2,4.7,4.1L11,16.7z" fill="#F1C40F" fill-rule="evenodd"/></g></g></g><g id="Discover"/><g id="Amex_3_"/><g id="Bitcoin_3_"/><g id="Google_Wallet_5_"/><g id="PayPal_3_"/><g id="Square_Payment_1_"/><g id="Shop_5_"/><g id="Postage"/><g id="Package_7_"/><g id="Discount_3_"/><g id="Earth_3_"/><g id="Barcode_3_"/><g id="Cart_Plus_6_"/><g id="Cart_Minus_6_"/><g id="Cart_4_"/><g id="Receipt_5_"/><g id="Truck_9_"/><g id="Calculator_6_"/><g id="Euro_Symbol"/><g id="Cent_Symbol"/><g id="Dollar_Symbol"/><g id="Pound_Symbol"/><g id="Bank_5_"/><g id="Wallet_3_"/><g id="Coins_6_"/><g id="Bills_6_"/><g id="Dollar_Alt"/><g id="Dollar"/></g><g id="Lockup"/></svg>